<svg width="20" height="18" viewBox="0 0 20 18" fill="none" xmlns="http://www.w3.org/2000/svg">
<path fill-rule="evenodd" clip-rule="evenodd" d="M4.42389 10.9329C4.42389 11.3355 4.80797 11.6618 5.28175 11.6618H19.8654V13.1195H5.28175C3.8604 13.1195 2.70817 12.1406 2.70817 10.9329V1.45773H0.134583V0H3.56603C4.03981 0 4.42389 0.326323 4.42389 0.728863V2.91545H18.1497C18.4139 2.91546 18.6634 3.01892 18.826 3.19591C18.9885 3.37289 19.046 3.60365 18.9818 3.82143L17.2661 9.65233C17.1705 9.97662 16.8274 10.2041 16.434 10.2041H4.42389V10.9329ZM5.28176 17.4928C6.22933 17.4928 6.99748 16.8401 6.99748 16.035C6.99748 15.2299 6.22933 14.5773 5.28176 14.5773C4.33419 14.5773 3.56603 15.2299 3.56603 16.035C3.56603 16.8401 4.33419 17.4928 5.28176 17.4928ZM17.2918 17.4928C18.2394 17.4928 19.0075 16.8401 19.0075 16.035C19.0075 15.2299 18.2394 14.5773 17.2918 14.5773C16.3442 14.5773 15.5761 15.2299 15.5761 16.035C15.5761 16.8401 16.3442 17.4928 17.2918 17.4928Z" fill="#E1D6BF"/>
</svg>
